Jump_normalized_Motion_pl07
version=1
nRows=10
nColumns=43
inDegrees=yes
endheader
time		pelvis_tilt		pelvis_list		pelvis_rotation		pelvis_tx		pelvis_ty		pelvis_tz		hip_flexion_r		hip_adduction_r		hip_rotation_r		knee_angle_r		ankle_angle_r		subtalar_angle_r		mtp_angle_r		hip_flexion_l		hip_adduction_l		hip_rotation_l		knee_angle_l		ankle_angle_l		subtalar_angle_l		mtp_angle_l		lumbar_extension		lumbar_bending		lumbar_rotation		neck_flexion		neck_lateral_bending		neck_rotation		arm_flex_r		arm_add_r		arm_rot_r		elbow_flex_r		pro_sup_r		wrist_flex_r		wrist_dev_r		hand_finger_flex_r		arm_flex_l		arm_add_l		arm_rot_l		elbow_flex_l		pro_sup_l		wrist_flex_l		wrist_dev_l		hand_finger_flex_l		
2.474167		0.078808		-25.791030		92.341266		-0.013747		1.622620		1.524715		85.338913		-9.513113		12.246381		-140.329035		14.120687		14.541880		20.173320		76.779601		-5.504063		6.398365		-138.127899		29.562424		10.927951		19.915397		-36.826291		-0.943514		-4.797921		32.551155		7.964782		0.567423		114.531038		-7.857618		25.339374		61.462465		77.470700		-2.364857		-9.053332		-29.541222		120.322736		-9.406686		29.202984		59.041907		95.457866		-14.011327		-8.864103		-9.906626		
2.476843		0.268994		-25.507330		92.538208		-0.013984		1.624185		1.520005		84.536256		-9.547673		11.987591		-140.074978		13.157680		14.261810		20.334053		75.868997		-5.517599		6.519437		-137.896943		29.279640		10.760841		20.122458		-36.810563		-0.710064		-4.760816		32.089526		7.817166		0.757612		114.765892		-7.613290		25.267245		61.079317		78.428090		-2.327246		-9.509424		-30.139838		120.407332		-9.128466		28.730550		58.570138		96.749588		-14.387496		-9.774330		-9.703502		
2.479520		0.424717		-25.340237		92.677883		-0.014195		1.625476		1.515239		83.878351		-9.525855		11.817120		-139.812645		12.206455		14.140033		20.491119		75.087353		-5.551936		6.617430		-137.690222		28.933192		10.727297		20.312815		-36.624502		-0.555102		-4.725245		31.529726		7.839837		0.785061		114.859933		-7.394461		25.082843		60.775247		79.073330		-2.200559		-9.878607		-30.534493		120.316690		-8.841848		28.190755		58.313699		97.688213		-14.734616		-10.343326		-9.498891		
2.482197		0.563703		-25.176686		92.792373		-0.014480		1.626768		1.510390		83.225471		-9.486519		11.694616		-139.539907		11.203100		14.023003		20.607784		74.304987		-5.570420		6.697962		-137.468428		28.569883		10.682321		20.463137		-36.430430		-0.407110		-4.675144		30.942702		7.909105		0.806129		114.923150		-7.199688		24.933714		60.505499		79.554437		-2.106565		-10.289474		-30.709754		120.180046		-8.607043		27.707240		58.132392		98.452606		-15.103281		-10.909071		-9.377000		
2.484874		0.751616		-24.910400		92.937652		-0.014637		1.628149		1.505393		82.462887		-9.479459		11.409244		-139.287851		10.125238		13.761803		20.789461		73.422184		-5.701245		6.784314		-137.220068		28.188409		10.587616		20.668778		-36.338504		-0.217981		-4.617303		30.369278		7.935557		0.846982		115.003694		-7.030545		24.820554		60.172684		80.228088		-1.957999		-10.956694		-30.734349		120.055408		-8.344971		27.178841		57.770547		99.520258		-15.555194		-11.680481		-9.233920		
2.487551		1.002791		-24.651216		93.092547		-0.014842		1.629677		1.500289		81.641957		-9.406623		11.055348		-138.942982		9.165140		13.341663		21.130914		72.539584		-5.806422		6.959181		-136.975105		27.825853		10.518568		20.992205		-36.254641		0.022226		-4.487587		29.842779		7.985676		0.847789		115.047217		-6.940062		24.725656		59.899983		81.122058		-1.718024		-11.751024		-30.534184		119.885000		-8.142215		26.682418		57.511910		100.862309		-15.997940		-12.494613		-9.000781		
2.490227		1.126488		-24.533776		93.190371		-0.014922		1.630766		1.495125		81.059790		-9.340682		10.916279		-138.684611		8.155204		13.327573		21.177061		71.798156		-5.894769		7.031335		-136.708868		27.374736		10.546827		21.050650		-35.958468		0.117361		-4.445956		29.152023		8.089306		0.817487		114.909347		-6.850167		24.571124		59.869137		81.368483		-1.735833		-12.027045		-30.440891		119.559978		-7.982513		26.302624		57.509668		101.121295		-16.340426		-12.727465		-9.077589		
2.492904		1.489866		-24.130751		93.384376		-0.014902		1.632408		1.489871		80.106794		-9.198979		10.355929		-138.308671		6.856448		12.583606		21.545126		70.811285		-6.116289		7.342352		-136.467105		26.952273		10.405122		21.380380		-36.008755		0.435499		-4.235047		28.586461		8.097263		0.906557		114.958810		-6.719671		24.446820		59.424431		82.604923		-1.600465		-12.964912		-29.846198		119.412174		-7.692652		25.835673		57.023942		102.450680		-16.935443		-13.485357		-9.181073		
2.495581		1.746160		-23.903274		93.531467		-0.014879		1.633625		1.484558		79.395533		-9.077274		9.991722		-137.981028		5.638463		12.223023		21.895863		69.997386		-6.283727		7.565944		-136.226023		26.479483		10.436808		21.660764		-35.816258		0.651471		-4.116130		27.878085		8.161705		0.957722		114.814866		-6.596845		24.282477		59.240300		83.495202		-1.603036		-13.400671		-29.339896		119.068505		-7.519643		25.398434		56.872252		103.161450		-17.320870		-13.702223		-9.318216		
2.498258		1.924629		-23.694042		93.633742		-0.014832		1.634774		1.479173		78.731084		-8.971180		9.719020		-137.659524		4.461102		11.925017		22.018423		69.189558		-6.439839		7.701737		-135.972309		25.968142		10.450902		21.768182		-35.595057		0.794114		-4.045861		27.133396		8.240044		0.986928		114.617875		-6.506735		24.203767		59.130366		84.066583		-1.630571		-13.717310		-29.054409		118.687467		-7.427536		25.094073		56.780770		103.467461		-17.698552		-13.846206		-9.570383		
